<svg width="55" height="26" viewBox="0 0 55 26" fill="none" xmlns="http://www.w3.org/2000/svg">
<g clip-path="url(#clip0_1_2096)">
<path d="M15.9678 6.5675C15.7643 6.7535 15.5583 6.93788 15.3572 7.12712C14.6451 7.79834 14.1107 8.57954 13.9226 9.55322C13.6614 10.9013 13.9396 12.1386 14.7595 13.2474C15.169 13.8021 15.6588 14.2623 16.31 14.5267C16.3863 14.5575 16.4633 14.585 16.5566 14.6205C16.4714 14.8502 16.3968 15.0766 16.306 15.2966C15.7756 16.5784 15.0855 17.7631 14.1448 18.7918C13.9696 18.9835 13.7717 19.1565 13.5698 19.3199C12.8821 19.8747 12.1125 20.0882 11.2439 19.8358C10.8109 19.7097 10.3819 19.5682 9.95124 19.4355C9.50683 19.2989 9.05756 19.1889 8.58882 19.1776C8.00897 19.1638 7.4713 19.3369 6.93606 19.5342C6.52896 19.6838 6.12023 19.8391 5.69934 19.9386C5.03759 20.0954 4.43909 19.8916 3.88925 19.5213C3.33536 19.1476 2.89663 18.6568 2.51791 18.1165C1.56664 16.762 0.842447 15.2966 0.398036 13.6994C0.00147274 12.2793 -0.10963 10.8374 0.112575 9.37773C0.30883 8.09028 0.789734 6.92899 1.69883 5.96906C2.64036 4.97436 3.79843 4.56596 5.15761 4.70021C5.83396 4.76733 6.4803 4.96303 7.12907 5.15065C7.39913 5.2291 7.67567 5.28813 7.94815 5.35687C8.33823 5.45553 8.72425 5.41105 9.10216 5.30026C9.63415 5.14418 10.1605 4.96789 10.6925 4.81019C11.4832 4.57567 12.2852 4.50935 13.101 4.66624C14.1569 4.87003 14.9906 5.43693 15.6888 6.22784C15.7764 6.32731 15.8624 6.42759 15.9484 6.52868C15.9565 6.53757 15.9597 6.55051 15.9678 6.56669V6.5675Z" fill="#131309"/>
<path d="M11.9997 0.0851574C12.0111 0.316466 12.0435 0.534025 12.0281 0.749158C11.9462 1.92026 11.4847 2.92718 10.6745 3.77558C10.3087 4.15813 9.90483 4.49458 9.40523 4.69192C8.98025 4.85933 8.5285 4.89573 8.07756 4.92808C8.07107 4.92808 8.06296 4.9208 8.05566 4.91675C8.11811 2.302 9.44173 0.610858 11.9997 0.0851574Z" fill="#131309"/>
<path d="M22.4664 3.19295C23.5125 3.01908 24.8831 2.87028 26.6274 2.87028C28.77 2.87028 30.3401 3.36682 31.3367 4.26125C32.2588 5.0562 32.807 6.2741 32.807 7.76454C32.807 9.25497 32.3586 10.4729 31.5111 11.3422C30.3652 12.5593 28.4959 13.1804 26.3785 13.1804C25.7305 13.1804 25.1328 13.1553 24.6341 13.0316V19.7398H22.4664V3.19295ZM24.6341 11.2678C25.1077 11.3924 25.7054 11.4417 26.428 11.4417C29.0441 11.4417 30.6385 10.1745 30.6385 7.86401C30.6385 5.55355 29.0693 4.58392 26.6769 4.58392C25.7305 4.58392 25.0071 4.65832 24.6341 4.75779V11.2678Z" fill="#131309"/>
<path d="M40.6276 19.7407L40.4532 18.2252H40.3786C39.7063 19.1698 38.4104 20.0141 36.6911 20.0141C34.2493 20.0141 33.0037 18.2996 33.0037 16.5601C33.0037 13.6528 35.5947 12.0629 40.2545 12.088V11.8397C40.2545 10.8458 39.9804 9.057 37.5135 9.057C36.3919 9.057 35.2208 9.40474 34.3742 9.95142L33.8763 8.51032C34.8729 7.86417 36.3181 7.44203 37.8378 7.44203C41.5253 7.44203 42.4222 9.95142 42.4222 12.3614V16.8585C42.4222 17.9018 42.4717 18.9207 42.6217 19.7407H40.6284H40.6276ZM40.304 13.6035C37.9125 13.5542 35.1965 13.9763 35.1965 16.3119C35.1965 17.7279 36.1429 18.3991 37.2645 18.3991C38.8345 18.3991 39.8304 17.4052 40.1799 16.3863C40.2545 16.1631 40.3048 15.914 40.3048 15.6908V13.6035H40.304Z" fill="#131309"/>
<path d="M45.3337 7.71521L47.9742 14.8213C48.2483 15.6162 48.5475 16.5608 48.747 17.2813H48.7965C49.0203 16.5608 49.2701 15.6413 49.5685 14.7719L51.9609 7.71602H54.2778L50.9894 16.2882C49.4193 20.4126 48.348 22.5249 46.8534 23.8164C45.7821 24.7602 44.7108 25.133 44.1626 25.2325L43.6144 23.3935C44.1626 23.2196 44.8852 22.8719 45.5332 22.3252C46.1308 21.8529 46.8786 21.0086 47.3773 19.8902C47.4771 19.667 47.5517 19.4923 47.5517 19.3686C47.5517 19.2449 47.5022 19.0702 47.4025 18.7968L42.9429 7.71521H45.3345H45.3337Z" fill="#131309"/>
</g>
<defs>
<clipPath id="clip0_1_2096">
<rect width="54.2786" height="25.146" fill="white"/>
</clipPath>
</defs>
</svg>
