<svg width="44" height="77" viewBox="0 0 44 77" fill="none" xmlns="http://www.w3.org/2000/svg">
<path d="M31.4629 76.0663C30.752 76.4121 29.8953 76.1159 29.5496 75.405L23.9159 63.8188C23.5702 63.1078 23.8663 62.2512 24.5773 61.9055C25.2883 61.5598 26.1449 61.8559 26.4906 62.5669L31.4984 72.8657L41.7972 67.8579C42.5082 67.5122 43.3648 67.8083 43.7105 68.5193C44.0562 69.2303 43.7601 70.0869 43.0491 70.4326L31.4629 76.0663ZM0.919762 2.76858C0.181495 2.48576 -0.187716 1.65801 0.0951021 0.919752C0.37792 0.181491 1.20567 -0.18772 1.94393 0.0951009L1.43185 1.43184L0.919762 2.76858ZM30.837 74.779L29.4841 74.3113C38.7869 47.3991 31.557 29.5877 22.1483 18.4717C17.4127 12.8768 12.0904 8.94145 7.94411 6.40385C5.87331 5.13649 4.10274 4.22197 2.85588 3.62669C2.23267 3.32914 1.74095 3.11167 1.40876 2.97C1.24269 2.89918 1.11655 2.84734 1.03386 2.81394C0.992522 2.79724 0.962046 2.78515 0.942883 2.77762C0.933302 2.77385 0.926546 2.77122 0.922675 2.76971C0.920736 2.76896 0.91952 2.76849 0.919036 2.76831C0.918787 2.76821 0.91897 2.76828 0.918846 2.76823C0.919212 2.76837 0.919762 2.76858 1.43185 1.43184C1.94393 0.0951009 1.94485 0.0954526 1.94595 0.0958752C1.94656 0.0961083 1.94785 0.0966057 1.94907 0.0970774C1.95152 0.0980207 1.95471 0.0992527 1.95862 0.100769C1.96644 0.103805 1.97717 0.10799 1.99076 0.113338C2.01794 0.124026 2.05653 0.139344 2.1061 0.159369C2.20525 0.199418 2.34833 0.258286 2.5318 0.336524C2.89869 0.492985 3.42736 0.72703 4.08937 1.04309C5.41296 1.67501 7.27213 2.63602 9.4386 3.96194C13.7668 6.61088 19.3491 10.7331 24.3336 16.6221C34.3652 28.474 41.8378 47.3362 32.1899 75.2467L30.837 74.779Z" fill="#554144"/>
</svg>
