<svg width="47" height="19" viewBox="0 0 47 19" fill="none" xmlns="http://www.w3.org/2000/svg">
<g clip-path="url(#clip0_1_2104)">
<path d="M22.1902 2.83284V7.55989H25.0912C25.7822 7.55989 26.3532 7.32663 26.8055 6.86012C27.2703 6.39427 27.5018 5.83881 27.5018 5.19571C27.5018 4.55261 27.2703 4.01691 26.8055 3.54974C26.3532 3.07071 25.7822 2.83152 25.0912 2.83152H22.1902V2.83284ZM22.1902 9.22431V14.7078H20.4581V1.16842H25.0538C26.2214 1.16842 27.2113 1.55982 28.0282 2.34063C28.8582 3.1221 29.2725 4.07358 29.2725 5.19571C29.2725 6.31784 28.8588 7.3016 28.0282 8.06989C27.2251 8.8395 26.2325 9.22299 25.0538 9.22299H22.1902V9.22431Z" fill="#5F6368"/>
<path d="M31.0219 11.8705C31.0219 12.3251 31.2133 12.7026 31.5968 13.0057C31.9803 13.3075 32.428 13.459 32.9432 13.459C33.6722 13.459 34.3199 13.1876 34.8915 12.646C35.4631 12.1031 35.7483 11.4679 35.7483 10.7373C35.2081 10.3077 34.4549 10.0942 33.4886 10.0942C32.7859 10.0942 32.1986 10.2649 31.7285 10.6055C31.2585 10.9455 31.0219 11.3665 31.0219 11.8705ZM33.2638 5.13962C34.5454 5.13962 35.5549 5.48289 36.2963 6.17007C37.0377 6.85726 37.4068 7.79943 37.4068 8.99657V14.7069H35.7502V13.4215H35.6748C34.9597 14.4796 34.0052 15.0086 32.8135 15.0086C31.7967 15.0086 30.9439 14.7069 30.2615 14.1021C29.5764 13.4959 29.2343 12.7409 29.2343 11.8316C29.2343 10.8743 29.5941 10.112 30.3165 9.5454C31.0389 8.97812 32.0026 8.69415 33.2074 8.69415C34.2366 8.69415 35.0849 8.88325 35.7496 9.26077V8.86348C35.7496 8.25865 35.511 7.7454 35.0344 7.32307C34.5565 6.90009 33.9993 6.68991 33.3582 6.68991C32.3906 6.68991 31.6256 7.09906 31.0612 7.91934L29.5351 6.95411C30.3775 5.74379 31.6197 5.13896 33.2651 5.13896" fill="#5F6368"/>
<path d="M46.9183 5.4421L41.1347 18.7917H39.3462L41.494 14.1207L37.6896 5.4421H39.5737L42.3226 12.0985H42.36L45.0341 5.4421H46.9183Z" fill="#5F6368"/>
<path d="M15.1883 8.04168C15.1883 7.49417 15.1424 6.96511 15.0552 6.45977H7.74866V9.45559H11.9336C11.754 10.432 11.2112 11.2635 10.3865 11.8196V13.7652H12.8841C14.3466 12.4106 15.1889 10.409 15.1889 8.04168" fill="#4285F4"/>
<path d="M7.74784 15.6444C9.83916 15.6444 11.5994 14.9545 12.8837 13.7651L10.3859 11.8194C9.691 12.2898 8.79547 12.5646 7.74784 12.5646C5.72666 12.5646 4.01164 11.1967 3.39801 9.35304H0.824829V11.3568C2.09995 13.8982 4.72099 15.6444 7.74849 15.6444" fill="#34A853"/>
<path d="M3.39791 9.35286C3.24123 8.88309 3.1547 8.3817 3.1547 7.86384C3.1547 7.34598 3.24058 6.84525 3.39791 6.37483V4.37058H0.824947C0.2979 5.42146 -0.000366211 6.6074 -0.000366211 7.86384C-0.000366211 9.12028 0.2979 10.3075 0.824947 11.3564L3.39791 9.35286Z" fill="#FABB05"/>
<path d="M7.74784 3.16413C8.88987 3.16413 9.91324 3.55816 10.7203 4.33106V4.33238L12.9322 2.11184C11.5889 0.855949 9.83785 0.0850191 7.74784 0.0850191C4.72099 0.0850191 2.09995 1.82982 0.824829 4.37126L3.39801 6.37567C4.01164 4.53203 5.72732 3.16478 7.74784 3.16478" fill="#E94235"/>
</g>
<defs>
<clipPath id="clip0_1_2104">
<rect width="46.9188" height="18.7062" fill="white"/>
</clipPath>
</defs>
</svg>
