<svg width="93" height="23" viewBox="0 0 93 23" fill="none" xmlns="http://www.w3.org/2000/svg">
<g clip-path="url(#clip0_1_2122)">
<path fill-rule="evenodd" clip-rule="evenodd" d="M8.10814 5.42669H14.4576C17.8667 5.42669 19.1501 7.16648 18.9517 9.72577C18.6256 13.9455 16.0933 16.2801 12.7367 16.2801H11.0419C10.5814 16.2801 10.2716 16.5874 10.1471 17.4201L9.41934 22.2578C9.37181 22.5718 9.20791 22.7568 8.96206 22.7783H4.98094C4.60561 22.7783 4.47285 22.4892 4.57119 21.863L7.00346 6.34367C7.10016 5.72244 7.43779 5.42504 8.10978 5.42504L8.10814 5.42669Z" fill="#009EE3"/>
<path fill-rule="evenodd" clip-rule="evenodd" d="M35.6731 5.13915C37.8152 5.13915 39.7917 6.31052 39.5213 9.22986C39.2001 12.6911 37.3498 14.6192 34.439 14.6274H31.9003C31.5348 14.6274 31.3578 14.9281 31.2628 15.5444L30.7727 18.695C30.699 19.1708 30.4564 19.4054 30.0991 19.4054H27.7342C27.3572 19.4054 27.2261 19.1626 27.3097 18.619L29.2649 5.98835C29.3616 5.36715 29.596 5.13585 30.0139 5.13585H35.6748L35.6731 5.13915ZM31.8217 11.8997H33.7474C34.952 11.8535 35.7518 11.0142 35.8321 9.49586C35.8813 8.55909 35.2536 7.88832 34.2555 7.89328L32.4428 7.90154L31.8217 11.8997ZM45.9508 18.4389C46.1672 18.2407 46.3868 18.1382 46.3556 18.3828L46.2786 18.9676C46.2393 19.2733 46.3589 19.4352 46.6408 19.4352H48.7419C49.0959 19.4352 49.268 19.2914 49.3549 18.7396L50.6496 10.5483C50.7152 10.1369 50.6152 9.93533 50.3054 9.93533H47.9962C47.7881 9.93533 47.6864 10.0526 47.6324 10.3732L47.5471 10.8771C47.5029 11.1397 47.3832 11.186 47.2718 10.9217C46.8801 9.98655 45.8804 9.5669 44.4774 9.59499C41.2373 9.66273 39.0526 12.1426 38.8182 15.3213C38.6379 17.7797 40.385 19.7111 42.6894 19.7111C44.3611 19.7111 45.1084 19.2088 45.9508 18.4389ZM44.1923 17.18C42.7975 17.18 41.8257 16.0582 42.0272 14.6836C42.2305 13.309 43.5334 12.1872 44.9281 12.1872C46.3229 12.1872 47.2947 13.309 47.0932 14.6836C46.8899 16.0582 45.587 17.18 44.1923 17.18ZM54.7633 9.90725H52.6409C52.2017 9.90725 52.023 10.2311 52.1623 10.6441L54.8076 18.4521L52.2017 22.1662C51.9837 22.4768 52.1525 22.7593 52.459 22.7593H54.8535C55.2107 22.7593 55.3845 22.6668 55.5648 22.4074L63.7004 10.6441C63.9511 10.2823 63.8331 9.90229 63.4218 9.90229H61.1584C60.77 9.89898 60.6143 10.0543 60.3914 10.3814L56.9988 15.3445L55.4894 10.3732C55.3959 10.0675 55.1747 9.9089 54.7666 9.9089L54.7633 9.90725Z" fill="#113984"/>
<path fill-rule="evenodd" clip-rule="evenodd" d="M72.1658 5.1391C74.3079 5.1391 76.2844 6.31047 76.014 9.22982C75.6928 12.6911 73.8424 14.6191 70.9317 14.6274H68.393C68.0275 14.6274 67.8505 14.9281 67.7555 15.5443L67.2654 18.695C67.1917 19.1708 66.9491 19.4054 66.5918 19.4054H64.2269C63.8499 19.4054 63.7188 19.1625 63.8024 18.619L65.7576 5.9883C65.8543 5.3671 66.0887 5.1358 66.5066 5.1358H72.1674L72.1658 5.1391ZM68.3143 11.8997H70.2401C71.4447 11.8534 72.2445 11.0141 72.3248 9.49581C72.374 8.55904 71.7462 7.88827 70.7481 7.89323L68.9355 7.90149L68.3143 11.8997ZM82.4435 18.4389C82.6598 18.2406 82.8795 18.1382 82.8483 18.3827L82.7713 18.9676C82.7319 19.2732 82.8516 19.4351 83.1335 19.4351H85.2346C85.5886 19.4351 85.7607 19.2914 85.8475 18.7396L87.1423 10.5482C87.2079 10.1368 87.1079 9.93528 86.7981 9.93528H84.4889C84.2807 9.93528 84.1791 10.0526 84.125 10.3731L84.0398 10.877C83.9956 11.1397 83.8759 11.186 83.7645 10.9216C83.3728 9.9865 82.373 9.56685 80.9701 9.59494C77.73 9.66268 75.5453 12.1426 75.3109 15.3213C75.1306 17.7797 76.8777 19.711 79.182 19.711C80.8537 19.711 81.6011 19.2088 82.4435 18.4389ZM80.6849 17.1799C79.2902 17.1799 78.3183 16.0581 78.5199 14.6836C78.7231 13.309 80.0261 12.1872 81.4208 12.1872C82.8155 12.1872 83.7874 13.309 83.5858 14.6836C83.3826 16.0581 82.0797 17.1799 80.6849 17.1799ZM90.3759 19.45H87.9503C87.7569 19.45 87.6241 19.298 87.6536 19.1113L89.7859 5.50422C89.8154 5.31753 89.9973 5.16553 90.1891 5.16553H92.6147C92.8081 5.16553 92.9408 5.31753 92.9113 5.50422L90.7791 19.1113C90.7496 19.298 90.5693 19.45 90.3759 19.45Z" fill="#009EE3"/>
<path fill-rule="evenodd" clip-rule="evenodd" d="M4.13703 0.0854073H10.4931C12.2828 0.0854073 14.407 0.143235 15.8263 1.40718C16.7753 2.25147 17.2736 3.59472 17.1588 5.03711C16.7688 9.92933 13.8661 12.6704 9.97186 12.6704H6.83646C6.30215 12.6704 5.94976 13.0272 5.79898 13.9921L4.92375 19.6014C4.86639 19.9649 4.71068 20.1797 4.4255 20.2061H0.511578C0.0772443 20.2061 -0.0768212 19.8707 0.0362695 19.1454L2.85534 1.14944C2.96843 0.427417 3.36015 0.0854073 4.13703 0.0854073Z" fill="#113984"/>
<path fill-rule="evenodd" clip-rule="evenodd" d="M5.89221 13.426L7.00172 6.3436C7.09841 5.72242 7.43601 5.42504 8.10794 5.42504H14.4569C15.5074 5.42504 16.3579 5.59025 17.0233 5.89588C16.3858 10.2508 13.5915 12.6694 9.93362 12.6694H6.7985C6.38551 12.6694 6.0774 12.8825 5.89221 13.426Z" fill="#172C70"/>
</g>
<defs>
<clipPath id="clip0_1_2122">
<rect width="92.9165" height="22.6925" fill="white"/>
</clipPath>
</defs>
</svg>
