<svg width="64" height="27" viewBox="0 0 64 27" fill="none" xmlns="http://www.w3.org/2000/svg">
<g clip-path="url(#clip0_1_2119)">
<path d="M4.43956 10.3737C4.43956 9.6901 5.00109 9.42719 5.93112 9.42719C7.26474 9.42719 8.94932 9.83031 10.2829 10.5489V6.43008C8.82648 5.85169 7.38757 5.62384 5.93112 5.62384C2.36894 5.62384 0 7.4817 0 10.584C0 15.4214 6.66812 14.6502 6.66812 16.7359C6.66812 17.5422 5.96621 17.8051 4.98354 17.8051C3.52708 17.8051 1.66703 17.2092 0.193025 16.4029V20.5744C1.82496 21.2754 3.47444 21.5734 4.98354 21.5734C8.63346 21.5734 11.1428 19.7681 11.1428 16.6308C11.1252 11.4077 4.43956 12.3367 4.43956 10.3737ZM16.3018 2.11844L12.0202 3.02985L12.0026 17.069C12.0026 19.663 13.9504 21.5734 16.5475 21.5734C17.9864 21.5734 19.0392 21.3105 19.6183 20.995V17.437C19.0568 17.6649 16.2842 18.4711 16.2842 15.8771V9.65505H19.6183V5.9218H16.2842L16.3018 2.11844ZM25.0756 7.21879L24.7949 5.9218H21.0046V21.2579H25.3915V10.8644C26.4268 9.51483 28.1816 9.76021 28.7256 9.953V5.9218C28.164 5.71147 26.111 5.32588 25.0756 7.21879ZM29.796 5.9218H34.2004V21.2579H29.796V5.9218ZM29.796 4.58975L34.2004 3.64329V0.0853128L29.796 1.01424V4.58975ZM43.3603 5.62384C41.6406 5.62384 40.5351 6.43008 39.921 6.99094L39.6929 5.90427H35.8324V26.3407L40.2193 25.4118L40.2368 20.4517C40.8686 20.9074 41.7986 21.5559 43.3428 21.5559C46.4838 21.5559 49.3441 19.032 49.3441 13.4759C49.3265 8.3931 46.4312 5.62384 43.3603 5.62384ZM42.3075 17.6999C41.2721 17.6999 40.658 17.3319 40.2368 16.8762L40.2193 10.3737C40.6755 9.86537 41.3072 9.51483 42.3075 9.51483C43.9043 9.51483 45.0098 11.3026 45.0098 13.5986C45.0098 15.9472 43.9218 17.6999 42.3075 17.6999ZM63.1717 13.6512C63.1717 9.16429 60.9957 5.62384 56.8369 5.62384C52.6606 5.62384 50.1337 9.16429 50.1337 13.6161C50.1337 18.8918 53.1168 21.5559 57.3985 21.5559C59.4866 21.5559 61.0659 21.0826 62.2592 20.4166V16.9112C61.0659 17.5071 59.6972 17.8752 57.96 17.8752C56.2579 17.8752 54.7488 17.2793 54.5557 15.2111H63.1366C63.1366 14.9832 63.1717 14.0718 63.1717 13.6512ZM54.5031 11.9861C54.5031 10.0056 55.7139 9.18182 56.8194 9.18182C57.8898 9.18182 59.0304 10.0056 59.0304 11.9861H54.5031Z" fill="#6772E5"/>
</g>
<defs>
<clipPath id="clip0_1_2119">
<rect width="63.1717" height="26.3726" fill="white"/>
</clipPath>
</defs>
</svg>
