<svg width="16" height="16" viewBox="0 0 16 16" fill="none" xmlns="http://www.w3.org/2000/svg">
<g clip-path="url(#clip0_218_51)">
<path fill-rule="evenodd" clip-rule="evenodd" d="M0 7.98048C0 5.87393 0.836824 3.85365 2.32638 2.3641C3.81593 0.874543 5.83621 0.0377197 7.94276 0.0377197C10.0493 0.0377197 12.0696 0.874543 13.5591 2.3641C15.0487 3.85365 15.8855 5.87393 15.8855 7.98048C15.8855 10.087 15.0487 12.1073 13.5591 13.5969C12.0696 15.0864 10.0493 15.9232 7.94276 15.9232C5.83621 15.9232 3.81593 15.0864 2.32638 13.5969C0.836824 12.1073 0 10.087 0 7.98048ZM7.48949 11.38L12.0624 5.66331L11.2364 5.00247L7.33699 9.87509L4.57503 7.57381L3.89725 8.38714L7.48949 11.381V11.38Z" fill="#4A8769"/>
</g>
<defs>
<clipPath id="clip0_218_51">
<rect width="15.8855" height="15.8855" fill="white"/>
</clipPath>
</defs>
</svg>
