<svg width="23" height="23" viewBox="0 0 23 23" fill="none" xmlns="http://www.w3.org/2000/svg">
<circle cx="11.2862" cy="11.2862" r="11.2862" fill="#4A8769"/>
<path d="M5.80257 7.06616C5.46095 7.06616 5.13331 7.20265 4.89175 7.44559C4.65018 7.68854 4.51447 8.01804 4.51447 8.36162V9.65708C4.51447 9.7716 4.55971 9.88144 4.64023 9.96242C4.72075 10.0434 4.82996 10.0889 4.94384 10.0889C5.28546 10.0889 5.6131 10.2254 5.85466 10.4683C6.09623 10.7113 6.23194 11.0408 6.23194 11.3844C6.23194 11.7279 6.09623 12.0574 5.85466 12.3004C5.6131 12.5433 5.28546 12.6798 4.94384 12.6798C4.82996 12.6798 4.72075 12.7253 4.64023 12.8063C4.55971 12.8873 4.51447 12.9971 4.51447 13.1116V14.4071C4.51447 14.7507 4.65018 15.0802 4.89175 15.3231C5.13331 15.5661 5.46095 15.7025 5.80257 15.7025H16.9661C17.3077 15.7025 17.6353 15.5661 17.8769 15.3231C18.1185 15.0802 18.2542 14.7507 18.2542 14.4071V13.1116C18.2542 12.9971 18.2089 12.8873 18.1284 12.8063C18.0479 12.7253 17.9387 12.6798 17.8248 12.6798C17.4832 12.6798 17.1556 12.5433 16.914 12.3004C16.6724 12.0574 16.5367 11.7279 16.5367 11.3844C16.5367 11.0408 16.6724 10.7113 16.914 10.4683C17.1556 10.2254 17.4832 10.0889 17.8248 10.0889C17.9387 10.0889 18.0479 10.0434 18.1284 9.96242C18.2089 9.88144 18.2542 9.7716 18.2542 9.65708V8.36162C18.2542 8.01804 18.1185 7.68854 17.8769 7.44559C17.6353 7.20265 17.3077 7.06616 16.9661 7.06616H5.80257Z" fill="#F4E9E1"/>
</svg>
