<svg width="23" height="23" viewBox="0 0 23 23" fill="none" xmlns="http://www.w3.org/2000/svg">
<circle cx="11.2862" cy="11.2862" r="11.2862" fill="#4A8769"/>
<g clip-path="url(#clip0_177_264)">
<path d="M10.1576 16.4456C10.1576 16.4456 9.35145 16.4456 9.35145 15.6395C9.35145 14.8333 10.1576 12.4148 13.3822 12.4148C16.6069 12.4148 17.413 14.8333 17.413 15.6395C17.413 16.4456 16.6069 16.4456 16.6069 16.4456H10.1576ZM13.3822 11.6087C14.0237 11.6087 14.6388 11.3539 15.0924 10.9003C15.5459 10.4468 15.8007 9.83163 15.8007 9.19021C15.8007 8.54879 15.5459 7.93364 15.0924 7.48008C14.6388 7.02653 14.0237 6.77173 13.3822 6.77173C12.7408 6.77173 12.1257 7.02653 11.6721 7.48008C11.2186 7.93364 10.9638 8.54879 10.9638 9.19021C10.9638 9.83163 11.2186 10.4468 11.6721 10.9003C12.1257 11.3539 12.7408 11.6087 13.3822 11.6087ZM8.71942 16.4456C8.59991 16.194 8.54031 15.918 8.54529 15.6395C8.54529 14.5471 9.09348 13.4225 10.106 12.6406C9.60063 12.4848 9.07409 12.4087 8.54529 12.4148C5.32066 12.4148 4.5145 14.8333 4.5145 15.6395C4.5145 16.4456 5.32066 16.4456 5.32066 16.4456H8.71942ZM8.14221 11.6087C8.67673 11.6087 9.18935 11.3963 9.56732 11.0184C9.94528 10.6404 10.1576 10.1278 10.1576 9.59329C10.1576 9.05877 9.94528 8.54615 9.56732 8.16818C9.18935 7.79022 8.67673 7.57789 8.14221 7.57789C7.6077 7.57789 7.09507 7.79022 6.71711 8.16818C6.33915 8.54615 6.12681 9.05877 6.12681 9.59329C6.12681 10.1278 6.33915 10.6404 6.71711 11.0184C7.09507 11.3963 7.6077 11.6087 8.14221 11.6087Z" fill="#F4E9E1"/>
</g>
<defs>
<clipPath id="clip0_177_264">
<rect width="12.8986" height="12.8986" fill="white" transform="translate(4.5145 5.15942)"/>
</clipPath>
</defs>
</svg>
